<?xml version="1.0" encoding="utf-8"?>
<!-- Generator: Adobe Illustrator 26.0.2, SVG Export Plug-In . SVG Version: 6.00 Build 0)  -->
<svg version="1.1" id="Capa_1" xmlns="http://www.w3.org/2000/svg" xmlns:xlink="http://www.w3.org/1999/xlink" x="0px" y="0px"
	 viewBox="0 0 148.51 48.93" style="enable-background:new 0 0 148.51 48.93;" xml:space="preserve">
<style type="text/css">
	.st0{fill:#9B615B;}
	.st1{font-family:'HelveticaNeue-Medium';}
	.st2{font-size:8.0092px;}
	.st3{fill:#42536E;}
	.st4{fill:#FFFFFF;}
</style>
<g>
	<g>
		<text transform="matrix(1 0 0 1 0.9897 46.6312)" class="st0 st1 st2">Departamentos Santa Tere</text>
	</g>
	<g>
		<path class="st0" d="M27.54,10.47c0.01-0.23,0.01-0.47,0-0.7c-0.1-2.14-1.18-8.42-10.43-8.42c-8.85,0-7.99,16.85-7.99,16.85
			s-0.69,16.31,7.83,16.31c11.09,0,10.46-9.38,10.46-9.38h1.27c0,0,0.54,10.27-11.2,10.56v0.03c-0.05,0-0.16,0-0.21,0
			c-0.04,0-0.08,0-0.12,0c-0.05,0-0.11,0-0.16,0c-0.08,0-0.16,0-0.24,0l-0.17,0c-0.05,0-0.11,0-0.16,0v-0.03
			C4.58,35.46,0,27.51,0,18.02C0,8.7,5.06,0.1,16.97,0.1c4.79,0,7.64,1.65,9.34,3.64c0.73,0.91,1.23,0.54,1.23-0.72V0h1.26v10.47
			L27.54,10.47z"/>
		<path class="st0" d="M56.13,34.63v1.12H46.3v-1.9c-5.05,3.78-15.77,2.48-15.77-5.09c0-7.02,11.16-7.55,15.77-7.5v-3.2
			c0-4.3-1.41-5.39-3.29-5.39c-2.38,0-4.42,0.1-4.33,1.04c0.09,0.94,0.94,1.38,0.94,3.25c0,0.08-0.01,0.16-0.01,0.24
			c-0.13,1.71-1.59,3.02-3.31,2.96c-1.72-0.06-3.08-1.47-3.08-3.19c0-0.12,0.01-0.23,0.02-0.35c0-0.03-0.01-0.05,0-0.08
			c-0.01-1.18,1.06-3.02,3.86-4.1c1.57-0.57,3.22-0.86,4.88-0.88v-0.02c0.23-0.01,0.43-0.01,0.64-0.01s0.44,0,0.65,0.01v0.02
			c1.01,0.03,2.03,0.14,3.02,0.34c0.62,0.12,1.24,0.29,1.85,0.48c4,1.33,6.56,4.13,6.56,7.71v14.54H56.13z M46.3,22.21
			c-4.14,0.71-7.35,2.87-7.35,6.99c0,4.82,3.36,4.93,4.86,4.7c0.9-0.14,1.75-0.49,2.49-1.01V22.21z"/>
		<path class="st0" d="M71.96,34.5v1.12H58.58V34.5h2.48V12.92h-1.69v-1.12h10.11V34.5H71.96z M61.77,5.11
			c0-2.05,1.67-3.72,3.72-3.72c2.05,0,3.72,1.67,3.72,3.72s-1.67,3.72-3.72,3.72C63.43,8.83,61.77,7.17,61.77,5.11z"/>
		<path class="st0" d="M94.32,15.49h-0.02c0.01,0.03,0.01,0.05,0.01,0.08c0,0.07,0.01,0.15,0.01,0.22c0,1.52-1.23,2.76-2.76,2.76
			c-1.52,0-2.76-1.23-2.76-2.76c0-0.09,0-0.19,0.02-0.28c0.15-2.37,2.18-3.13,0.43-3.13c-2.46,0-4,1.76-4.87,3.34v18.72h2.61v1.12
			H74.05v-1.12h2.61V12.81h-1.66v-1.12h9.38v2.21c1.31-1.59,3.27-2.52,5.33-2.52c1.39,0,4.21,0.92,4.56,3.82
			c0.02,0.09,0.04,0.17,0.06,0.26V15.49z"/>
		<path class="st0" d="M121.16,23.37c0,8.03-5.22,12.25-12.93,12.25c-6.21,0-12.9-2.68-12.9-12.25c0-8.57,6.75-12.26,12.97-12.26
			C114.51,11.11,121.15,15.09,121.16,23.37z M108.42,34.63c3.46,0,4.32-5.44,4.32-11.26c0-6.36-0.94-11.24-4.5-11.24
			c-3.55,0-4.5,4.89-4.5,11.24S104.86,34.63,108.42,34.63L108.42,34.63z"/>
	</g>
	<path class="st3" d="M148.51,20.54l-23.58,0.07V13.1h-1.75v-1.16h25.23"/>
	<g>
		<path class="st4" d="M127.87,15.73v-0.95c0.75,0.02,1.52-0.26,1.57-1.1h1.07v5.31h-1.37v-3.26H127.87z"/>
		<path class="st4" d="M132.76,17.34c0.01,0.42,0.47,0.66,0.85,0.66c0.5,0,0.88-0.34,0.88-0.85c0-0.52-0.3-0.88-0.84-0.88
			c-0.37,0-0.64,0.08-0.85,0.4h-1.17l0.52-3h3.35v1.1h-2.36l-0.2,0.97h0.02c0.27-0.26,0.63-0.38,1.04-0.38
			c1.09,0,1.78,0.63,1.78,1.73c0,1.31-0.95,1.97-2.18,1.97c-1.16,0-2.07-0.44-2.15-1.72H132.76z"/>
		<path class="st4" d="M139.55,15.06c-0.05-0.21-0.14-0.34-0.27-0.41c-0.12-0.07-0.26-0.08-0.37-0.08c-0.75,0-1.03,0.75-1.06,1.35
			h0.01c0.27-0.44,0.74-0.56,1.24-0.56c0.98,0,1.72,0.79,1.72,1.75c0,1.27-0.97,1.96-2.13,1.96c-1.57,0-2.12-1.33-2.12-2.69
			c0-1.49,0.72-2.76,2.33-2.76c0.95,0,1.69,0.48,1.85,1.45H139.55z M138.72,18.01c0.54,0,0.9-0.38,0.9-0.82
			c0-0.5-0.32-0.89-0.91-0.89c-0.49,0-0.83,0.4-0.83,0.88C137.89,17.64,138.22,18.01,138.72,18.01z"/>
		<path class="st4" d="M142.93,17.34c0.01,0.42,0.47,0.66,0.85,0.66c0.5,0,0.88-0.34,0.88-0.85c0-0.52-0.3-0.88-0.84-0.88
			c-0.37,0-0.64,0.08-0.85,0.4h-1.17l0.52-3h3.35v1.1h-2.36l-0.2,0.97h0.02c0.27-0.26,0.63-0.38,1.04-0.38
			c1.09,0,1.78,0.63,1.78,1.73c0,1.31-0.95,1.97-2.18,1.97c-1.16,0-2.07-0.44-2.15-1.72H142.93z"/>
	</g>
</g>
</svg>
